# Blender v2.80 (sub 75) OBJ File: ''
# www.blender.org
mtllib untitled.mtl
o Cylinder
v -2.246442 0.000000 -1.000000
v 2.246442 -0.000000 -1.000000
v -2.246442 -0.195090 -0.980785
v 2.246442 -0.195090 -0.980785
v -2.246442 -0.382683 -0.923880
v 2.246442 -0.382684 -0.923880
v -2.246442 -0.555570 -0.831470
v 2.246442 -0.555570 -0.831470
v -2.246442 -0.707107 -0.707107
v 2.246442 -0.707107 -0.707107
v -2.246442 -0.831470 -0.555570
v 2.246442 -0.831470 -0.555570
v -2.246442 -0.923879 -0.382683
v 2.246442 -0.923880 -0.382683
v -2.246442 -0.980785 -0.195090
v 2.246442 -0.980785 -0.195090
v -2.246442 -1.000000 -0.000000
v 2.246442 -1.000000 -0.000000
v -2.246442 -0.980785 0.195090
v 2.246442 -0.980785 0.195090
v -2.246442 -0.923879 0.382683
v 2.246442 -0.923880 0.382683
v -2.246442 -0.831470 0.555570
v 2.246442 -0.831470 0.555570
v -2.246442 -0.707107 0.707107
v 2.246442 -0.707107 0.707107
v -2.246442 -0.555570 0.831470
v 2.246442 -0.555570 0.831470
v -2.246442 -0.382683 0.923880
v 2.246442 -0.382683 0.923880
v -2.246442 -0.195090 0.980785
v 2.246442 -0.195090 0.980785
v -2.246442 0.000000 1.000000
v 2.246442 0.000000 1.000000
v -2.246442 0.195091 0.980785
v 2.246442 0.195091 0.980785
v -2.246442 0.382684 0.923879
v 2.246442 0.382684 0.923879
v -2.246442 0.555571 0.831469
v 2.246442 0.555571 0.831469
v -2.246442 0.707107 0.707106
v 2.246442 0.707107 0.707106
v -2.246442 0.831470 0.555570
v 2.246442 0.831470 0.555570
v -2.246442 0.923880 0.382683
v 2.246442 0.923880 0.382683
v -2.246442 0.980786 0.195089
v 2.246442 0.980785 0.195089
v -2.246442 1.000000 -0.000001
v 2.246442 1.000000 -0.000001
v -2.246442 0.980785 -0.195091
v 2.246442 0.980785 -0.195091
v -2.246442 0.923879 -0.382684
v 2.246442 0.923879 -0.382684
v -2.246442 0.831469 -0.555571
v 2.246442 0.831469 -0.555571
v -2.246442 0.707106 -0.707108
v 2.246442 0.707106 -0.707108
v -2.246442 0.555569 -0.831470
v 2.246442 0.555569 -0.831470
v -2.246442 0.382682 -0.923880
v 2.246442 0.382682 -0.923880
v -2.246442 0.195089 -0.980786
v 2.246442 0.195089 -0.980786
v 1.425758 -0.889475 6.248990
v -1.093563 -0.889474 6.248990
v -1.093563 -0.694384 6.268204
v 1.425758 -0.694384 6.268204
v -1.093563 0.726669 -6.675200
v 1.425758 0.726669 -6.675200
v 1.425758 0.921758 -6.655985
v -1.093563 0.921758 -6.655985
v 0.471761 -0.220899 0.978823
v 0.047972 -0.220899 0.978823
v 0.047972 -0.025808 0.998038
v 0.471761 -0.025808 0.998038
v 0.471761 -0.289404 1.938374
v 0.047972 -0.094314 1.957588
v 0.047972 -0.289404 1.938374
v 0.471761 -0.094314 1.957588
v 1.425758 -0.337195 2.423599
v -1.093563 -0.142104 2.442814
v -1.093563 -0.337194 2.423599
v 1.425758 -0.142104 2.442814
v 0.047972 0.220730 -0.999835
v 0.047972 0.025641 -1.019050
v 0.471761 0.025641 -1.019050
v 0.471761 0.220730 -0.999835
v 0.047972 0.291714 -1.961842
v 0.047972 0.096625 -1.981057
v 0.471761 0.096625 -1.981057
v 0.471761 0.291714 -1.961842
v -1.093563 0.334316 -2.394389
v -1.093563 0.139227 -2.413604
v 1.425758 0.139227 -2.413604
v 1.425758 0.334316 -2.394390
vt 1.000000 0.500000
vt 1.000000 1.000000
vt 0.968750 1.000000
vt 0.968750 0.500000
vt 0.937500 1.000000
vt 0.937500 0.500000
vt 0.906250 1.000000
vt 0.906250 0.500000
vt 0.875000 1.000000
vt 0.875000 0.500000
vt 0.843750 1.000000
vt 0.843750 0.500000
vt 0.812500 1.000000
vt 0.812500 0.500000
vt 0.781250 1.000000
vt 0.781250 0.500000
vt 0.750000 1.000000
vt 0.750000 0.500000
vt 0.718750 1.000000
vt 0.718750 0.500000
vt 0.687500 1.000000
vt 0.687500 0.500000
vt 0.656250 1.000000
vt 0.656250 0.500000
vt 0.625000 1.000000
vt 0.625000 0.500000
vt 0.593750 1.000000
vt 0.593750 0.500000
vt 0.562500 1.000000
vt 0.562500 0.500000
vt 0.531250 1.000000
vt 0.531250 0.500000
vt 0.531250 0.500000
vt 0.531250 1.000000
vt 0.531250 1.000000
vt 0.531250 0.500000
vt 0.500000 0.500000
vt 0.500000 1.000000
vt 0.468750 1.000000
vt 0.468750 0.500000
vt 0.437500 1.000000
vt 0.437500 0.500000
vt 0.406250 1.000000
vt 0.406250 0.500000
vt 0.375000 1.000000
vt 0.375000 0.500000
vt 0.343750 1.000000
vt 0.343750 0.500000
vt 0.312500 1.000000
vt 0.312500 0.500000
vt 0.281250 1.000000
vt 0.281250 0.500000
vt 0.250000 1.000000
vt 0.250000 0.500000
vt 0.218750 1.000000
vt 0.218750 0.500000
vt 0.187500 1.000000
vt 0.187500 0.500000
vt 0.156250 1.000000
vt 0.156250 0.500000
vt 0.125000 1.000000
vt 0.125000 0.500000
vt 0.093750 1.000000
vt 0.093750 0.500000
vt 0.062500 1.000000
vt 0.062500 0.500000
vt 0.296822 0.485388
vt 0.250000 0.490000
vt 0.203179 0.485389
vt 0.158156 0.471731
vt 0.116663 0.449553
vt 0.080295 0.419706
vt 0.050447 0.383337
vt 0.028269 0.341844
vt 0.014612 0.296822
vt 0.010000 0.250000
vt 0.014611 0.203179
vt 0.028269 0.158156
vt 0.050447 0.116663
vt 0.080294 0.080294
vt 0.116663 0.050447
vt 0.158156 0.028269
vt 0.203178 0.014612
vt 0.250000 0.010000
vt 0.296822 0.014612
vt 0.341844 0.028269
vt 0.383337 0.050447
vt 0.419706 0.080294
vt 0.449553 0.116663
vt 0.471731 0.158156
vt 0.485388 0.203178
vt 0.490000 0.250000
vt 0.485388 0.296822
vt 0.471731 0.341844
vt 0.449553 0.383337
vt 0.419706 0.419706
vt 0.383337 0.449553
vt 0.341844 0.471731
vt 0.031250 1.000000
vt 0.031250 0.500000
vt 0.750000 0.490000
vt 0.703179 0.485389
vt 0.703179 0.485389
vt 0.750000 0.490000
vt 0.750000 0.490000
vt 0.796822 0.485388
vt 0.841844 0.471731
vt 0.883337 0.449553
vt 0.919706 0.419706
vt 0.949553 0.383337
vt 0.971731 0.341844
vt 0.985388 0.296822
vt 0.990000 0.250000
vt 0.985388 0.203178
vt 0.971731 0.158156
vt 0.949553 0.116663
vt 0.919706 0.080294
vt 0.883337 0.050447
vt 0.841844 0.028269
vt 0.796822 0.014612
vt 0.750000 0.010000
vt 0.703178 0.014612
vt 0.658156 0.028269
vt 0.616663 0.050447
vt 0.580294 0.080294
vt 0.550447 0.116663
vt 0.528269 0.158156
vt 0.514611 0.203179
vt 0.510000 0.250000
vt 0.514612 0.296822
vt 0.528269 0.341844
vt 0.550447 0.383337
vt 0.580295 0.419706
vt 0.616663 0.449553
vt 0.658156 0.471731
vt 0.703179 0.485389
vt 0.500000 1.000000
vt 0.500000 0.500000
vt 0.500000 1.000000
vt 0.500000 0.500000
vt 0.750000 0.010000
vt 0.796822 0.014612
vt 0.796822 0.014612
vt 0.750000 0.010000
vt 0.296822 0.014612
vt 0.250000 0.010000
vt 0.250000 0.010000
vt 0.296822 0.014612
vt 0.031250 0.500000
vt 0.031250 1.000000
vt 0.000000 1.000000
vt 0.000000 0.500000
vt 1.000000 1.000000
vt 1.000000 0.500000
vt 1.000000 0.500000
vt 1.000000 1.000000
vt 0.203179 0.485389
vt 0.250000 0.490000
vt 0.250000 0.490000
vt 0.203179 0.485389
vt 0.031250 0.500000
vt 0.031250 1.000000
vt 0.250000 0.010000
vt 0.296822 0.014612
vt 0.796822 0.014612
vt 0.750000 0.010000
vt 0.500000 0.500000
vt 0.500000 1.000000
vt 0.531250 1.000000
vt 0.531250 0.500000
vt 0.250000 0.010000
vt 0.296822 0.014612
vt 0.796822 0.014612
vt 0.750000 0.010000
vt 0.500000 0.500000
vt 0.500000 1.000000
vt 0.531250 1.000000
vt 0.531250 0.500000
vt 0.031250 1.000000
vt 0.031250 0.500000
vt 0.250000 0.490000
vt 0.203179 0.485389
vt 1.000000 0.500000
vt 1.000000 1.000000
vt 0.703179 0.485389
vt 0.750000 0.490000
vt 0.031250 1.000000
vt 0.031250 0.500000
vt 0.250000 0.490000
vt 0.203179 0.485389
vt 1.000000 0.500000
vt 1.000000 1.000000
vt 0.703179 0.485388
vt 0.750000 0.490000
vn 0.0000 -0.0980 -0.9952
vn -0.0000 -0.2903 -0.9569
vn -0.0000 -0.4714 -0.8819
vn -0.0000 -0.6344 -0.7730
vn -0.0000 -0.7730 -0.6344
vn -0.0000 -0.8819 -0.4714
vn -0.0000 -0.9569 -0.2903
vn -0.0000 -0.9952 -0.0980
vn -0.0000 -0.9952 0.0980
vn -0.0000 -0.9569 0.2903
vn -0.0000 -0.8819 0.4714
vn -0.0000 -0.7730 0.6344
vn -0.0000 -0.6344 0.7730
vn -0.0000 -0.4714 0.8819
vn -0.0000 -0.2903 0.9569
vn -0.0000 -0.9897 -0.1429
vn 0.0000 0.0980 0.9952
vn 0.0000 0.2903 0.9569
vn 0.0000 0.4714 0.8819
vn 0.0000 0.6344 0.7730
vn 0.0000 0.7730 0.6344
vn 0.0000 0.8819 0.4714
vn 0.0000 0.9569 0.2903
vn 0.0000 0.9952 0.0980
vn 0.0000 0.9952 -0.0980
vn 0.0000 0.9569 -0.2903
vn 0.0000 0.8819 -0.4714
vn 0.0000 0.7730 -0.6344
vn 0.0000 0.6344 -0.7730
vn 0.0000 0.4714 -0.8819
vn 1.0000 0.0000 0.0000
vn 0.0000 0.2903 -0.9569
vn -1.0000 -0.0000 0.0000
vn -0.0000 -0.0980 0.9952
vn 0.0000 0.9897 0.1429
vn 0.0000 0.0980 -0.9952
vn -0.0000 -0.9906 -0.1366
vn 0.0000 0.9906 0.1366
vn 0.0003 -0.0980 0.9952
vn -0.0003 -0.0980 0.9952
vn 0.0000 -0.0758 0.9971
vn 0.0000 0.0758 -0.9971
vn 0.0000 0.9975 0.0712
vn -0.0000 -0.9975 -0.0712
vn 0.4551 0.0873 -0.8862
vn -0.3928 0.0901 -0.9152
vn 0.0000 0.5964 0.8027
vn 0.0121 0.0980 -0.9951
vn -0.0000 -0.5964 -0.8027
vn -0.0094 0.0980 -0.9951
vn 0.0000 0.9973 0.0736
vn -0.0000 -0.9973 -0.0736
vn 0.4146 -0.0892 0.9056
vn -0.3558 -0.0916 0.9301
usemtl None
s off
f 1/1/1 2/2/1 4/3/1 3/4/1
f 3/4/2 4/3/2 6/5/2 5/6/2
f 5/6/3 6/5/3 8/7/3 7/8/3
f 7/8/4 8/7/4 10/9/4 9/10/4
f 9/10/5 10/9/5 12/11/5 11/12/5
f 11/12/6 12/11/6 14/13/6 13/14/6
f 13/14/7 14/13/7 16/15/7 15/16/7
f 15/16/8 16/15/8 18/17/8 17/18/8
f 17/18/9 18/17/9 20/19/9 19/20/9
f 19/20/10 20/19/10 22/21/10 21/22/10
f 21/22/11 22/21/11 24/23/11 23/24/11
f 23/24/12 24/23/12 26/25/12 25/26/12
f 25/26/13 26/25/13 28/27/13 27/28/13
f 27/28/14 28/27/14 30/29/14 29/30/14
f 29/30/15 30/29/15 32/31/15 31/32/15
f 83/33/16 81/34/16 65/35/16 66/36/16
f 33/37/17 34/38/17 36/39/17 35/40/17
f 35/40/18 36/39/18 38/41/18 37/42/18
f 37/42/19 38/41/19 40/43/19 39/44/19
f 39/44/20 40/43/20 42/45/20 41/46/20
f 41/46/21 42/45/21 44/47/21 43/48/21
f 43/48/22 44/47/22 46/49/22 45/50/22
f 45/50/23 46/49/23 48/51/23 47/52/23
f 47/52/24 48/51/24 50/53/24 49/54/24
f 49/54/25 50/53/25 52/55/25 51/56/25
f 51/56/26 52/55/26 54/57/26 53/58/26
f 53/58/27 54/57/27 56/59/27 55/60/27
f 55/60/28 56/59/28 58/61/28 57/62/28
f 57/62/29 58/61/29 60/63/29 59/64/29
f 59/64/30 60/63/30 62/65/30 61/66/30
f 4/67/31 2/68/31 64/69/31 62/70/31 60/71/31 58/72/31 56/73/31 54/74/31 52/75/31 50/76/31 48/77/31 46/78/31 44/79/31 42/80/31 40/81/31 38/82/31 36/83/31 34/84/31 32/85/31 30/86/31 28/87/31 26/88/31 24/89/31 22/90/31 20/91/31 18/92/31 16/93/31 14/94/31 12/95/31 10/96/31 8/97/31 6/98/31
f 61/66/32 62/65/32 64/99/32 63/100/32
f 94/101/33 93/102/33 72/103/33 69/104/33
f 1/105/33 3/106/33 5/107/33 7/108/33 9/109/33 11/110/33 13/111/33 15/112/33 17/113/33 19/114/33 21/115/33 23/116/33 25/117/33 27/118/33 29/119/33 31/120/33 33/121/33 35/122/33 37/123/33 39/124/33 41/125/33 43/126/33 45/127/33 47/128/33 49/129/33 51/130/33 53/131/33 55/132/33 57/133/33 59/134/33 61/135/33 63/136/33
f 66/36/34 65/35/34 68/137/34 67/138/34
f 84/139/35 82/140/35 67/138/35 68/137/35
f 82/141/33 83/142/33 66/143/33 67/144/33
f 81/145/31 84/146/31 68/147/31 65/148/31
f 72/149/36 71/150/36 70/151/36 69/152/36
f 95/153/37 94/154/37 69/155/37 70/156/37
f 96/157/31 95/158/31 70/159/31 71/160/31
f 93/161/38 96/162/38 71/150/38 72/149/38
f 32/85/39 34/84/39 76/163/39 73/164/39
f 33/121/40 31/120/40 74/165/40 75/166/40
f 34/38/41 33/37/41 75/167/41 76/168/41
f 31/32/42 32/31/42 73/169/42 74/170/42
f 73/164/31 76/163/31 80/171/31 77/172/31
f 75/166/33 74/165/33 79/173/33 78/174/33
f 76/168/43 75/167/43 78/175/43 80/176/43
f 74/170/44 73/169/44 77/177/44 79/178/44
f 77/172/45 80/171/45 84/146/45 81/145/45
f 78/174/46 79/173/46 83/142/46 82/141/46
f 80/176/24 78/175/24 82/140/24 84/139/24
f 79/178/8 77/177/8 81/34/8 83/33/8
f 63/100/47 64/99/47 88/179/47 85/180/47
f 64/69/48 2/68/48 87/181/48 88/182/48
f 2/2/49 1/1/49 86/183/49 87/184/49
f 1/105/50 63/136/50 85/185/50 86/186/50
f 85/180/51 88/179/51 92/187/51 89/188/51
f 88/182/31 87/181/31 91/189/31 92/190/31
f 87/184/52 86/183/52 90/191/52 91/192/52
f 86/186/33 85/185/33 89/193/33 90/194/33
f 89/188/24 92/187/24 96/162/24 93/161/24
f 92/190/53 91/189/53 95/158/53 96/157/53
f 91/192/8 90/191/8 94/154/8 95/153/8
f 90/194/54 89/193/54 93/102/54 94/101/54
